<svg xmlns="http://www.w3.org/2000/svg" viewBox="0 0 200 200" width="200" height="200">
  <defs>
    <linearGradient id="bgGrad" x1="0%" y1="0%" x2="135%" y2="135%">
      <stop offset="0%" stop-color="rgb(6, 182, 212)"/>
      <stop offset="55%" stop-color="rgb(124, 58, 237)"/>
      <stop offset="100%" stop-color="rgb(76, 29, 149)"/>
    </linearGradient>

    <linearGradient id="shineGrad" x1="0%" y1="0%" x2="100%" y2="100%">
      <stop offset="0%" stop-color="rgb(255, 255, 255)" stop-opacity="0.15"/>
      <stop offset="100%" stop-color="rgb(255, 255, 255)" stop-opacity="0"/>
    </linearGradient>

    <linearGradient id="whiteGrad" x1="0%" y1="0%" x2="100%" y2="100%">
      <stop offset="0%" stop-color="rgb(255, 255, 255)" stop-opacity="1"/>
      <stop offset="100%" stop-color="rgb(224, 247, 255)" stop-opacity="0.9"/>
    </linearGradient>

    
      
      
    

    
      
      
    
  </defs>

  
  <rect width="200" height="200" fill="url(#bgGrad)" rx="44"/>
  <rect width="200" height="200" fill="url(#shineGrad)" rx="44"/>

  
  

  
  <circle cx="100" cy="88" r="13" fill="white" opacity="0.97"/>
  
  <polygon points="96,83 96,93 107,88" fill="#7C3AED"/>

  
  
  <line x1="89" y1="80" x2="56" y2="54" stroke="white" stroke-width="2" stroke-linecap="round" opacity="0.7"/>
  
  <line x1="111" y1="80" x2="147" y2="54" stroke="white" stroke-width="2" stroke-linecap="round" opacity="0.7"/>
  
  <line x1="100" y1="101" x2="100" y2="130" stroke="white" stroke-width="2" stroke-linecap="round" opacity="0.7"/>

  
  <g transform="translate(37, 34)">
    <rect x="0" y="0" width="34" height="34" rx="9" fill="white" opacity="0.95"/>
    <circle cx="17" cy="17" r="8" fill="none" stroke="#7C3AED" stroke-width="2.5"/>
    <circle cx="24.5" cy="9.5" r="2.2" fill="#06B6D4"/>
  </g>

  
  <g transform="translate(131, 34)">
    <rect x="0" y="0" width="34" height="34" rx="9" fill="white" opacity="0.95"/>
    
    <line x1="9" y1="9" x2="25" y2="25" stroke="#7C3AED" stroke-width="3" stroke-linecap="round"/>
    <line x1="25" y1="9" x2="9" y2="25" stroke="#7C3AED" stroke-width="3" stroke-linecap="round"/>
  </g>

  
  <g transform="translate(75, 128)">
    <rect x="0" y="0" width="50" height="34" rx="9" fill="white" opacity="0.95"/>
    <polygon points="19,9 19,25 35,17" fill="#06B6D4"/>
  </g>

  
  <circle cx="100" cy="88" r="20" fill="none" stroke="white" stroke-width="1" opacity="0.25"/>
  <circle cx="100" cy="88" r="27" fill="none" stroke="white" stroke-width="0.7" opacity="0.13"/>

  
  <circle cx="72" cy="67" r="3" fill="#00E5FF"/>
  <circle cx="129" cy="67" r="3" fill="#00E5FF"/>
  <circle cx="100" cy="115" r="3" fill="#00E5FF"/>

  
  <text x="100" y="182" text-anchor="middle" font-family="'Arial', sans-serif" font-size="15" font-weight="700" letter-spacing="2" fill="white" opacity="0.95">Bor Medya</text>

  
  <rect x="55" y="172" width="90" height="1.5" rx="1" fill="#00E5FF" opacity="0.6"/>
</svg>